<svg xmlns="http://www.w3.org/2000/svg" viewBox="0 0 512 512">
<defs><linearGradient id="g" x1="0" y1="0" x2="1" y2="1"><stop offset="0" stop-color="#7f1d1d"/><stop offset="1" stop-color="#ef4444"/></linearGradient></defs>
<rect width="512" height="512" fill="url(#g)"/>
<g fill="#fca5a5" opacity="0.2"><path d="M0 380 L130 250 L260 320 L150 512 Z"/><path d="M240 512 L340 250 L512 320 L512 512 Z"/></g>
<g fill="#b91c1c"><path d="M96 342 L196 198 L268 314 L168 430 Z"/><path d="M250 338 L332 212 L404 314 L320 436 Z"/></g>
<g fill="#7f1d1d"><rect x="84" y="330" width="120" height="18" rx="8"/><rect x="240" y="326" width="112" height="18" rx="8"/></g>
<g fill="none" stroke="#fecaca" stroke-width="10" opacity="0.18"><path d="M32 460 L220 180"/><path d="M170 500 L350 210"/><path d="M300 510 L470 240"/></g>
</svg>