<svg xmlns="http://www.w3.org/2000/svg" viewBox="0 0 512 512">
<defs><linearGradient id="g" x1="0" y1="0" x2="1" y2="1"><stop offset="0" stop-color="#d97706"/><stop offset="1" stop-color="#fcd34d"/></linearGradient></defs>
<rect width="512" height="512" fill="url(#g)"/>
<path d="M0 330 C120 280 180 380 290 328 S420 264 512 324 V512 H0 Z" fill="#fef3c7" opacity="0.55"/>
<path d="M0 388 C110 340 208 432 308 388 S436 340 512 382 V512 H0 Z" fill="#fde68a" opacity="0.62"/>
<g fill="#92400e"><path d="M178 330 q 18 -60 34 0 q -8 38 -17 38 q -10 0 -17 -38z"/><path d="M204 338 q 20 -64 36 0 q -8 44 -18 44 q -10 0 -18 -44z"/></g>
<rect x="205" y="366" width="8" height="56" rx="4" fill="#78350f"/><rect x="226" y="380" width="8" height="46" rx="4" fill="#78350f"/>
<circle cx="390" cy="118" r="36" fill="#fef08a" opacity="0.72"/>
</svg>