<svg xmlns="http://www.w3.org/2000/svg" viewBox="0 0 512 512">
<defs><linearGradient id="g" x1="0" y1="0" x2="1" y2="1"><stop offset="0" stop-color="#65a30d"/><stop offset="1" stop-color="#bef264"/></linearGradient></defs>
<rect width="512" height="512" fill="url(#g)"/>
<ellipse cx="120" cy="410" rx="180" ry="70" fill="#4d7c0f" opacity="0.55"/>
<ellipse cx="386" cy="416" rx="180" ry="78" fill="#65a30d" opacity="0.52"/>
<g transform="translate(60 120)">
<g fill="#f8fafc"><circle cx="90" cy="76" r="34"/><circle cx="125" cy="66" r="40"/><circle cx="165" cy="72" r="34"/><circle cx="140" cy="98" r="38"/><circle cx="106" cy="104" r="30"/></g>
<ellipse cx="176" cy="98" rx="28" ry="24" fill="#111827"/>
<circle cx="188" cy="94" r="4" fill="#fff"/><rect x="88" y="120" width="12" height="50" rx="6" fill="#111827"/><rect x="120" y="126" width="12" height="44" rx="6" fill="#111827"/><rect x="146" y="124" width="12" height="46" rx="6" fill="#111827"/><rect x="172" y="118" width="12" height="52" rx="6" fill="#111827"/>
</g>
<g transform="translate(250 190) scale(.8)">
<g fill="#f8fafc"><circle cx="90" cy="76" r="34"/><circle cx="125" cy="66" r="40"/><circle cx="165" cy="72" r="34"/><circle cx="140" cy="98" r="38"/><circle cx="106" cy="104" r="30"/></g>
<ellipse cx="176" cy="98" rx="28" ry="24" fill="#111827"/>
<circle cx="188" cy="94" r="4" fill="#fff"/><rect x="88" y="120" width="12" height="50" rx="6" fill="#111827"/><rect x="120" y="126" width="12" height="44" rx="6" fill="#111827"/><rect x="146" y="124" width="12" height="46" rx="6" fill="#111827"/><rect x="172" y="118" width="12" height="52" rx="6" fill="#111827"/>
</g>
</svg>