<svg xmlns="http://www.w3.org/2000/svg" viewBox="0 0 512 512">
<defs><linearGradient id="g" x1="0" y1="0" x2="1" y2="1"><stop offset="0" stop-color="#ca8a04"/><stop offset="1" stop-color="#fde047"/></linearGradient></defs>
<rect width="512" height="512" fill="url(#g)"/>
<g stroke="#854d0e" stroke-width="6" fill="none" opacity="0.75">
<path d="M140 420 C145 340 160 250 180 110"/><path d="M240 430 C242 350 250 260 262 100"/><path d="M340 420 C332 330 332 240 332 116"/>
</g>
<g fill="#fef08a" opacity="0.95">
<ellipse cx="160" cy="190" rx="14" ry="30" transform="rotate(-24 160 190)"/><ellipse cx="190" cy="150" rx="14" ry="30" transform="rotate(18 190 150)"/><ellipse cx="150" cy="250" rx="14" ry="30" transform="rotate(-18 150 250)"/>
<ellipse cx="250" cy="180" rx="14" ry="30" transform="rotate(-16 250 180)"/><ellipse cx="276" cy="136" rx="14" ry="30" transform="rotate(12 276 136)"/><ellipse cx="244" cy="244" rx="14" ry="30" transform="rotate(-12 244 244)"/>
<ellipse cx="324" cy="176" rx="14" ry="30" transform="rotate(-12 324 176)"/><ellipse cx="350" cy="134" rx="14" ry="30" transform="rotate(14 350 134)"/><ellipse cx="334" cy="244" rx="14" ry="30" transform="rotate(-8 334 244)"/>
</g>
<rect y="390" width="512" height="122" fill="#a16207" opacity="0.18"/>
</svg>